<?xml version="1.0" standalone="no"?>
<!DOCTYPE svg PUBLIC "-//W3C//DTD SVG 20010904//EN"
 "http://www.w3.org/TR/2001/REC-SVG-20010904/DTD/svg10.dtd">
<svg version="1.0" xmlns="http://www.w3.org/2000/svg"
 width="512.000000pt" height="512.000000pt" viewBox="0 0 512.000000 512.000000"
 preserveAspectRatio="xMidYMid meet">
<metadata>
Created by potrace 1.14, written by Peter Selinger 2001-2017
</metadata>
<g transform="translate(0.000000,512.000000) scale(0.100000,-0.100000)"
fill="#000000" stroke="none">
<path d="M2379 5116 c-2 -2 -44 -7 -94 -10 -49 -4 -108 -11 -130 -16 -22 -5
-58 -11 -80 -14 -44 -5 -43 -5 -170 -35 -191 -45 -478 -152 -595 -221 -8 -4
-40 -22 -70 -38 -335 -179 -663 -483 -884 -820 -56 -85 -163 -291 -195 -377
-13 -33 -29 -73 -36 -90 -14 -31 -74 -248 -81 -294 -2 -14 -9 -47 -14 -73 -24
-120 -34 -445 -18 -603 39 -371 192 -768 410 -1062 23 -32 41 -65 40 -73 -3
-13 -225 -571 -257 -645 -7 -16 -55 -133 -106 -260 -75 -184 -93 -240 -93
-280 0 -73 10 -100 55 -145 70 -70 151 -76 270 -21 35 16 195 86 354 156 160
69 310 136 335 147 25 11 81 36 125 55 44 20 103 45 130 58 28 12 104 46 169
75 l120 52 125 -41 c124 -40 152 -48 279 -77 77 -17 128 -26 222 -39 195 -27
586 -27 742 0 13 2 55 9 93 15 139 22 441 104 529 145 17 8 55 23 83 34 79 31
175 81 201 105 110 100 68 289 -74 336 -52 18 -108 8 -199 -35 -231 -108 -487
-180 -755 -212 -84 -10 -427 -9 -505 1 -33 4 -71 9 -85 11 -128 15 -323 65
-485 125 -77 28 -154 50 -176 50 -26 0 -92 -24 -206 -74 -244 -107 -659 -290
-725 -319 l-56 -26 40 102 c21 56 45 115 52 132 15 33 183 450 214 530 21 52
22 120 4 165 -5 14 -33 54 -62 90 -29 36 -74 97 -101 137 -45 66 -59 90 -122
206 -30 54 -83 183 -108 261 -59 184 -81 317 -84 521 -4 245 24 420 101 640
137 384 417 735 774 968 156 103 151 99 235 140 255 125 501 199 770 231 117
14 487 15 545 2 14 -4 45 -8 70 -11 123 -13 355 -73 502 -131 341 -133 644
-346 865 -606 198 -233 351 -534 408 -803 35 -161 43 -252 40 -435 -4 -178 -4
-176 -34 -326 -42 -207 -137 -435 -262 -629 -61 -97 -63 -102 -64 -167 0 -58
4 -72 30 -110 57 -82 160 -109 251 -67 49 23 72 49 146 168 164 258 293 628
325 931 10 93 10 394 1 475 -30 265 -99 498 -218 740 -337 684 -1009 1182
-1800 1334 -58 11 -135 23 -170 27 -36 3 -69 9 -74 11 -9 6 -461 14 -467 9z"/>
<path d="M2510 3833 c-96 -31 -156 -113 -147 -203 6 -63 20 -92 63 -134 131
-128 354 -15 330 167 -8 59 -25 90 -70 130 -44 39 -124 58 -176 40z"/>
<path d="M2475 3129 c-51 -25 -90 -71 -105 -123 -8 -29 -10 -212 -8 -621 l3
-580 28 -42 c31 -48 107 -93 158 -93 83 0 173 59 198 131 8 22 10 205 8 624
l-2 593 -31 43 c-60 82 -164 111 -249 68z"/>
</g>
</svg>
